# xmcd
#
# Track frame offsets:
#	150
#	16617
#	40775
#	60445
#	79665
#	97480
#	117420
#	138107
#	160232
#	177960
#
# Disc length: 2611
#
# Revision: 3
# Processed by: cddbd v1.5.1PL0 Copyright (c) Steve Scherf et al.
# Submitted via: tcd 2.0b
# Normalized: r2:TDELIM( - )
#
DISCID=770a310a
DTITLE=80s Rock - Disc 3
DYEAR=1900
DGENRE=
TTITLE0=Twisted Sister - We're Not Going To Take It
TTITLE1=Great White - Once Bitten, Twice Shy
TTITLE2=Night Ranger - Don't Tell Me You Love Me
TTITLE3=Boston - Amanda
TTITLE4=Scandal featuring Patty Smyth - The Warrior
TTITLE5=Loverboy - The Kid Is Hot Tonite
TTITLE6=Whitesnake - Here I Go Again
TTITLE7=Living Colour - Cult Of Personality
TTITLE8=REO Speedwagon - Keep The Fire Burnin'
TTITLE9=Aldo Nova - Fantasy
EXTD=
EXTT0=
EXTT1=
EXTT2=
EXTT3=
EXTT4=
EXTT5=
EXTT6=
EXTT7=
EXTT8=
EXTT9=
PLAYORDER=
